G04 Layer_Physical_Order=1*
G04 Layer_Color=255*
%FSLAX25Y25*%
%MOIN*%
G70*
G01*
G75*
%ADD10R,0.02362X0.01969*%
%ADD11R,0.02795X0.10630*%
%ADD12C,0.01969*%
%ADD13C,0.00591*%
%ADD14C,0.00787*%
%ADD15C,0.00394*%
G36*
X9272Y10630D02*
X6476D01*
X7874Y16299D01*
X9272Y10630D01*
D02*
G37*
G36*
X5335D02*
X2539D01*
X3937Y16299D01*
X5335Y10630D01*
D02*
G37*
G36*
X17146D02*
X14350D01*
X15748Y16299D01*
X17146Y10630D01*
D02*
G37*
G36*
X13209D02*
X10413D01*
X11811Y16299D01*
X13209Y10630D01*
D02*
G37*
D10*
X7876Y95276D02*
D03*
X11813D02*
D03*
D11*
X7874Y5315D02*
D03*
X3937D02*
D03*
X11811D02*
D03*
X15748D02*
D03*
D12*
X16419Y98032D02*
D03*
X3270D02*
D03*
D13*
X10728Y88583D02*
D03*
X8957D02*
D03*
X10630Y90158D02*
D03*
X10728Y87008D02*
D03*
X8957D02*
D03*
X9055Y90158D02*
D03*
D14*
X10630Y17480D02*
Y85039D01*
X12207Y79933D02*
Y85628D01*
X10827Y87008D02*
X12207Y85628D01*
X10630Y90158D02*
Y92244D01*
X11813Y93427D01*
Y95276D01*
X8858Y84409D02*
Y87008D01*
X9055Y17480D02*
Y84213D01*
X8858Y84409D02*
X9055Y84213D01*
X10630Y17480D02*
X11811Y16299D01*
X12205Y19842D02*
Y79931D01*
Y19842D02*
X15748Y16299D01*
X7874D02*
X9055Y17480D01*
X11811Y5315D02*
Y16299D01*
X15748Y5315D02*
Y16299D01*
X7874Y5315D02*
Y16299D01*
X12205Y79931D02*
X12207Y79933D01*
X3937Y16299D02*
X7480Y19842D01*
X3937Y5315D02*
Y16299D01*
X7520Y90158D02*
X9055D01*
X7480Y19842D02*
Y94880D01*
X11813Y95276D02*
X12106Y94982D01*
D15*
X9843Y85827D02*
Y89370D01*
Y85827D02*
X10630Y85039D01*
X9843Y89370D02*
X10630Y90158D01*
M02*
